<svg width="148" height="32" fill="none" xmlns="http://www.w3.org/2000/svg"><path d="M28.48 10.62a13.248 13.248 0 0 0-2-3.22A13.53 13.53 0 1 0 7.8 26.72a13.09 13.09 0 0 0 3.2 1.83 13.39 13.39 0 0 0 5.07 1A13.56 13.56 0 0 0 29.6 16a13.39 13.39 0 0 0-1.12-5.38ZM16.06 5.19c1.562 0 3.104.341 4.52 1a4.39 4.39 0 0 1-1.08.31 5.73 5.73 0 0 0-4.85 4.85A3 3 0 0 1 11.94 14a5.73 5.73 0 0 0-4.85 4.85 2.91 2.91 0 0 1-.79 1.74 10.8 10.8 0 0 1 9.77-15.42l-.01.02ZM7.79 23c.12-.11.24-.21.36-.33a5.48 5.48 0 0 0 1.62-3.23 2.92 2.92 0 0 1 .87-1.82 2.83 2.83 0 0 1 1.81-.86 5.73 5.73 0 0 0 4.85-4.85 2.92 2.92 0 0 1 .87-1.91A2.87 2.87 0 0 1 20 9.17a5.48 5.48 0 0 0 3-1.43 10.51 10.51 0 0 1 2.36 2.78.862.862 0 0 1-.13.14 2.87 2.87 0 0 1-1.81.88 5.71 5.71 0 0 0-4.85 4.85 3 3 0 0 1-2.69 2.68A5.76 5.76 0 0 0 11 23.92a3.14 3.14 0 0 1-.49 1.37A10.89 10.89 0 0 1 7.79 23Zm8.27 3.86a10.841 10.841 0 0 1-3-.42c.334-.622.55-1.3.64-2a3 3 0 0 1 2.68-2.68 5.73 5.73 0 0 0 4.86-4.85 3 3 0 0 1 2.68-2.68 5.71 5.71 0 0 0 2.56-1 10.82 10.82 0 0 1-10.42 13.58v.05Zm31.55-13.34c0 1.25-.651 1.933-1.952 2.05v.065c.68.015 1.215.2 1.606.556.39.356.586.87.586 1.541 0 .282-.034.559-.1.832-.066.27-.21.51-.434.721-.218.211-.537.383-.955.516-.414.133-.972.199-1.675.199H38.24v-2.174c.344 0 .59-.045.738-.135.149-.093.223-.267.223-.521v-2.965c0-.258-.074-.432-.223-.521-.148-.094-.394-.141-.738-.141v-2.174h6.85c.539 0 .974.06 1.306.182.332.12.588.281.768.48.18.2.299.43.358.692.058.257.087.523.087.796Zm-4.079 4.306c.328 0 .555-.062.68-.187.125-.13.187-.342.187-.639s-.062-.512-.187-.645c-.125-.136-.352-.205-.68-.205h-.873v1.676h.873Zm-.873-2.713h.885c.242 0 .416-.076.522-.228a.957.957 0 0 0 .163-.563.927.927 0 0 0-.163-.545c-.106-.156-.28-.234-.522-.234h-.885v1.57Zm14.168 2.244c0 .188.053.313.158.375a.73.73 0 0 0 .37.094h.31V20h-3.48v-1.605h-.094c-.09.597-.334 1.05-.733 1.359-.398.308-.978.463-1.74.463-.535 0-.97-.076-1.306-.229-.336-.152-.596-.343-.78-.574a2.064 2.064 0 0 1-.38-.756c-.067-.273-.1-.53-.1-.767v-1.6c0-.207-.037-.354-.111-.44-.07-.09-.21-.134-.417-.134h-.351v-2.174h4.096v3.697c0 .153.017.276.052.37.035.09.08.16.135.21a.47.47 0 0 0 .193.094.982.982 0 0 0 .205.023c.258 0 .448-.074.569-.222.125-.149.187-.36.187-.633v-.791c0-.207-.037-.354-.111-.44-.07-.09-.209-.134-.416-.134h-.346v-2.174h4.09v3.814Zm5.045-3.814-.1 1.611h.1c.137-.617.363-1.084.68-1.4.32-.316.734-.475 1.242-.475.3 0 .559.05.773.147.22.094.395.22.528.38s.228.346.287.557c.058.207.088.422.088.645 0 .183-.028.365-.082.545a1.345 1.345 0 0 1-.732.838 1.728 1.728 0 0 1-.71.128c-.39 0-.699-.1-.925-.298a.934.934 0 0 1-.335-.721c0-.137.016-.252.047-.346.032-.097.063-.175.094-.234a1.42 1.42 0 0 0 .07-.135c.012-.027-.002-.04-.04-.04-.083 0-.172.093-.27.28-.094.188-.14.483-.14.885v1.342c0 .207.035.355.105.445.074.086.215.13.422.13h.351V20h-4.933v-2.174h.345c.16 0 .282-.05.364-.152a.575.575 0 0 0 .128-.375v-1.113c0-.184-.054-.307-.163-.37a.668.668 0 0 0-.364-.1h-.31v-2.173h3.48Zm12.568 7.523c0 .665-.382 1.172-1.148 1.524-.762.351-1.865.527-3.31.527a50.61 50.61 0 0 1-1.53-.023 6.735 6.735 0 0 1-1.318-.159c-.383-.085-.692-.224-.926-.415-.23-.192-.346-.463-.346-.815 0-.281.09-.512.27-.691.18-.18.373-.323.58-.428-.254-.152-.428-.322-.522-.51a1.404 1.404 0 0 1-.134-.615c0-.266.095-.52.287-.762.191-.246.467-.484.826-.715a2.446 2.446 0 0 1-.809-.843c-.187-.332-.28-.727-.28-1.184 0-.441.09-.828.275-1.16a2.33 2.33 0 0 1 .79-.832 4.01 4.01 0 0 1 1.231-.51 6.736 6.736 0 0 1 1.606-.176c.636 0 1.21.069 1.722.205.516.137.953.344 1.313.621.07-.093.166-.185.287-.275.101-.07.23-.135.386-.193a1.55 1.55 0 0 1 .575-.094h.539v2.174h-.387c-.168 0-.297.047-.387.14a.532.532 0 0 0-.152.264c-.137.824-.535 1.453-1.195 1.887-.66.433-1.56.65-2.701.65a6.82 6.82 0 0 1-1.74-.205c-.083.055-.124.123-.124.205 0 .152.09.26.27.322.18.063.418.106.715.13.296.019.634.027 1.013.023.38-.008.766-.002 1.16.017.399.016.787.051 1.166.106.383.055.721.152 1.014.293.297.14.535.332.715.574.18.246.27.56.27.943Zm-5.279-5.109c0 .406.057.72.17.943.113.22.33.329.65.329.325 0 .543-.11.657-.329.113-.222.17-.537.17-.943 0-.402-.057-.709-.17-.92-.114-.21-.332-.316-.656-.316-.32 0-.538.105-.65.316-.114.211-.17.518-.17.92Zm1.084 5.197a16.605 16.605 0 0 1-2.056-.123.4.4 0 0 0-.06.205c0 .282.153.465.458.551.305.09.705.135 1.201.135.664 0 1.148-.041 1.453-.123.309-.078.463-.19.463-.334 0-.074-.045-.131-.135-.17a1.397 1.397 0 0 0-.345-.094 3.316 3.316 0 0 0-.47-.04 21.91 21.91 0 0 0-.509-.007Zm8.268-4.02c.015.583.125.985.328 1.208.207.219.502.328.885.328.129 0 .254-.018.375-.053.125-.039.24-.1.345-.181a1.1 1.1 0 0 0 .27-.334 1.4 1.4 0 0 0 .152-.528H83c-.078.504-.223.926-.434 1.266-.207.34-.474.615-.802.826a3.423 3.423 0 0 1-1.149.445 6.873 6.873 0 0 1-1.453.141 5.54 5.54 0 0 1-1.553-.211 3.773 3.773 0 0 1-1.277-.639 3.034 3.034 0 0 1-.855-1.084c-.208-.437-.311-.957-.311-1.558 0-.575.098-1.078.293-1.512.195-.433.469-.795.82-1.084a3.632 3.632 0 0 1 1.254-.662 5.418 5.418 0 0 1 1.594-.223c.71 0 1.322.094 1.834.281.512.188.93.45 1.254.786.324.336.562.74.715 1.213.152.472.224.998.216 1.576h-4.634Zm.867-2.273c-.273 0-.477.098-.61.293-.128.192-.214.51-.257.955h1.716c-.023-.382-.105-.685-.246-.908a.67.67 0 0 0-.603-.34Zm7.98-1.318-.1 1.611h.1c.137-.617.364-1.084.68-1.4.32-.316.734-.475 1.242-.475.301 0 .559.05.774.147.218.094.394.22.527.38s.229.346.287.557c.059.207.088.422.088.645 0 .183-.027.365-.082.545a1.346 1.346 0 0 1-.732.838 1.729 1.729 0 0 1-.71.128c-.39 0-.699-.1-.925-.298a.934.934 0 0 1-.334-.721c0-.137.015-.252.047-.346.031-.097.062-.175.093-.234.036-.063.059-.107.07-.135.013-.027-.001-.04-.04-.04-.082 0-.172.093-.27.28-.093.188-.14.483-.14.885v1.342c0 .207.035.355.105.445.074.086.215.13.422.13h.352V20h-4.934v-2.174h.346c.16 0 .28-.05.363-.152a.575.575 0 0 0 .129-.375v-1.113c0-.184-.055-.307-.164-.37a.667.667 0 0 0-.364-.1h-.31v-2.173h3.48Zm13.998 2.607h-2.015v1.09c0 .207.056.358.17.451.117.09.324.135.621.135V20h-5.21v-2.174c.345 0 .59-.045.74-.135.148-.093.222-.267.222-.521v-2.965c0-.258-.075-.432-.223-.521-.148-.094-.394-.141-.738-.141v-2.174h5.209v2.174c-.297 0-.504.047-.621.14-.114.09-.17.24-.17.452v.943h2.015v-.943c0-.211-.058-.362-.175-.451-.118-.094-.323-.141-.616-.141v-2.174h5.204v2.174c-.344 0-.59.047-.739.14-.144.09-.217.264-.217.522v2.965c0 .254.073.428.217.521.149.09.395.135.739.135V20h-5.204v-2.174c.293 0 .498-.045.616-.135.117-.093.175-.244.175-.45v-1.09Zm8.028-1.793a2.475 2.475 0 0 0-.879.147.998.998 0 0 0-.252.135c-.066.046-.125.09-.176.129l.059.058c.074-.039.154-.078.24-.117a.856.856 0 0 1 .34-.059.86.86 0 0 1 .597.229c.168.148.252.387.252.715a.896.896 0 0 1-.386.756c-.254.187-.596.28-1.026.28-.41 0-.738-.116-.984-.35-.242-.239-.363-.575-.363-1.009 0-.238.066-.474.199-.709.133-.238.338-.45.615-.638.281-.188.637-.342 1.067-.463.433-.121.955-.182 1.564-.182.727 0 1.32.069 1.781.205.461.137.819.313 1.072.528.258.215.434.459.528.732.097.274.146.549.146.826v2.291c0 .356.012.598.035.727.024.125.112.187.264.187a.253.253 0 0 0 .252-.17c.051-.117.076-.316.076-.597v-.733h.668v.745c0 .351-.029.664-.088.937-.058.27-.17.502-.334.697a1.504 1.504 0 0 1-.668.434c-.281.101-.64.152-1.078.152-.394 0-.722-.043-.984-.129a1.84 1.84 0 0 1-.615-.31 1.207 1.207 0 0 1-.328-.387.886.886 0 0 1-.094-.363h-.094a.96.96 0 0 1-.205.457 1.496 1.496 0 0 1-.463.387 2.772 2.772 0 0 1-.709.263c-.273.07-.586.106-.937.106-.336 0-.643-.034-.92-.1a1.974 1.974 0 0 1-.703-.299 1.48 1.48 0 0 1-.452-.539 1.84 1.84 0 0 1-.158-.79c0-.376.106-.67.317-.886.21-.218.476-.39.796-.515a6.167 6.167 0 0 1 1.043-.31c.379-.083.729-.18 1.049-.294.321-.113.586-.26.797-.44.211-.179.316-.433.316-.76 0-.294-.091-.528-.275-.704-.183-.18-.484-.27-.902-.27Zm1.177 2.538a1.03 1.03 0 0 1-.322.304 15.52 15.52 0 0 0-.375.223c-.117.07-.22.156-.31.258a.582.582 0 0 0-.129.398c0 .129.035.246.105.352.071.101.207.152.41.152.184 0 .332-.07.446-.21.117-.145.175-.347.175-.604v-.873Zm5.309-.674a.95.95 0 0 0-.287-.381c-.105-.082-.307-.123-.604-.123v-2.174h4.706v2.174c-.25 0-.413.037-.487.111-.07.07-.076.182-.017.334l.632 1.799h.088l.668-1.799c.059-.144.051-.254-.023-.328-.07-.078-.231-.117-.481-.117v-2.174h3.264v2.174c-.285 0-.486.039-.603.117-.118.074-.215.203-.293.387L120.863 20h-3.422l-1.57-3.78Zm11.051.914c.016.582.125.984.328 1.207.207.219.502.328.885.328.129 0 .254-.018.375-.053.125-.039.24-.1.345-.181.106-.086.196-.198.27-.334a1.4 1.4 0 0 0 .152-.528h2.133c-.078.504-.222.926-.433 1.266-.207.34-.475.615-.803.826a3.42 3.42 0 0 1-1.149.445 6.873 6.873 0 0 1-1.453.141c-.551 0-1.068-.07-1.552-.211a3.769 3.769 0 0 1-1.278-.639 3.036 3.036 0 0 1-.855-1.084c-.207-.437-.311-.957-.311-1.558 0-.575.098-1.078.293-1.512a2.95 2.95 0 0 1 .82-1.084 3.641 3.641 0 0 1 1.254-.662 5.423 5.423 0 0 1 1.594-.223c.711 0 1.322.094 1.834.281.512.188.93.45 1.254.786.324.336.563.74.715 1.213.152.472.224.998.217 1.576h-4.635Zm.867-2.274c-.273 0-.477.098-.609.293-.129.192-.215.51-.258.955h1.717c-.024-.382-.106-.685-.246-.908a.672.672 0 0 0-.604-.34Zm9.902 1.395a.93.93 0 0 0-.058-.363.473.473 0 0 0-.141-.211.397.397 0 0 0-.187-.1.953.953 0 0 0-.205-.023c-.254 0-.444.074-.569.222-.125.149-.187.36-.187.633v.838c0 .207.035.355.105.445.074.086.215.13.422.13h.317V20h-4.899v-2.174h.346c.16 0 .281-.05.363-.152a.575.575 0 0 0 .129-.375v-1.113c0-.184-.055-.307-.164-.37a.67.67 0 0 0-.363-.1h-.311v-2.173h3.481l-.124 1.611h.1c.086-.601.35-1.064.791-1.388.442-.325 1.041-.487 1.799-.487.535 0 .971.076 1.307.229.336.152.595.346.779.58.187.23.314.482.381.756.066.27.099.523.099.761v1.647c0 .207.036.355.106.445.074.086.215.13.422.13h.316V20h-4.055v-3.744Z" fill="#000"/></svg>